<?xml version="1.0"?>
<svg xmlns="http://www.w3.org/2000/svg" xmlns:xlink="http://www.w3.org/1999/xlink" width="512" height="512" viewBox="0 0 512 512"><defs><linearGradient id="a" data-name="New Gradient Swatch 1" x1="-39.459" y1="439.459" x2="463.095" y2="-63.095" gradientUnits="userSpaceOnUse"><stop offset="0" stop-color="#003f8a"/><stop offset="0.518" stop-color="#00d7df"/><stop offset="1" stop-color="#006df0"/></linearGradient><linearGradient id="b" x1="-53.46" y1="425.459" x2="449.094" y2="-77.095" xlink:href="#a"/><linearGradient id="c" x1="-62.106" y1="416.813" x2="440.448" y2="-85.741" xlink:href="#a"/><linearGradient id="d" x1="42.54" y1="521.458" x2="545.094" y2="18.904" xlink:href="#a"/></defs><g><path d="M272.188,126.282A24,24,0,1,0,255.973,168q.552,0,1.107-.024a24,24,0,0,0,15.108-41.694ZM261.906,149.4a8,8,0,0,1-13.9-5.035h0a8,8,0,0,1,7.631-8.352c.123-.006.246-.008.369-.008a8,8,0,0,1,5.9,13.4Z" fill="url(#a)"/><path d="M292.656,110.021a55.991,55.991,0,0,0-74.936,1.465,8,8,0,1,0,10.941,11.675,39.991,39.991,0,0,1,53.517-1.049,8,8,0,0,0,10.478-12.091Z" fill="url(#b)"/><path d="M213.336,104.66a63.988,63.988,0,0,1,85.336.005,8,8,0,0,0,10.674-11.919,79.986,79.986,0,0,0-106.682-.006,8,8,0,1,0,10.672,11.92Z" fill="url(#c)"/><path d="M496,416H480V144a32.036,32.036,0,0,0-32-32H343.63a87.994,87.994,0,0,0-175.26,0H64a32.036,32.036,0,0,0-32,32V416H16a8,8,0,0,0-8,8v24a32.042,32.042,0,0,0,32,32H472a32.042,32.042,0,0,0,32-32V424A8,8,0,0,0,496,416ZM256,48a72,72,0,1,1-72,72A72.083,72.083,0,0,1,256,48Zm0,160a88.148,88.148,0,0,0,81.98-56H440V392H72V152H174.02A88.148,88.148,0,0,0,256,208ZM48,144a16.021,16.021,0,0,1,16-16H168.37c.24,2.7.61,5.37,1.09,8H64a8,8,0,0,0-8,8V400a8,8,0,0,0,8,8H448a8,8,0,0,0,8-8V144a8,8,0,0,0-8-8H342.54c.48-2.63.85-5.3,1.09-8H448a16.021,16.021,0,0,1,16,16V416H48ZM292.46,432l-3,8H221.77l-2.67-8ZM488,448a16.021,16.021,0,0,1-16,16H40a16.021,16.021,0,0,1-16-16V432H202.23l6.18,18.53A8,8,0,0,0,216,456h79a8.005,8.005,0,0,0,7.49-5.19L309.54,432H488Z" fill="url(#d)"/></g></svg>
