<svg id="Capa_1" enable-background="new 0 0 512 512" height="512" viewBox="0 0 512 512" width="512" xmlns="http://www.w3.org/2000/svg" xmlns:xlink="http://www.w3.org/1999/xlink"><linearGradient id="lg1"><stop offset="0" stop-color="#003f8a"/><stop offset=".518" stop-color="#00d7df"/><stop offset="1" stop-color="#006df0"/></linearGradient><linearGradient id="SVGID_1_" gradientUnits="userSpaceOnUse" x1="-149.635" x2="318.341" xlink:href="#lg1" y1="416.822" y2="-181.648"/><linearGradient id="SVGID_2_" gradientUnits="userSpaceOnUse" x1="-174.868" x2="293.108" xlink:href="#lg1" y1="397.091" y2="-201.379"/><linearGradient id="SVGID_3_" gradientUnits="userSpaceOnUse" x1="-124.403" x2="343.574" xlink:href="#lg1" y1="436.553" y2="-161.917"/><linearGradient id="SVGID_4_" gradientUnits="userSpaceOnUse" x1="-117.987" x2="349.99" xlink:href="#lg1" y1="441.57" y2="-156.9"/><linearGradient id="SVGID_5_" gradientUnits="userSpaceOnUse" x1="-181.904" x2="286.072" xlink:href="#lg1" y1="391.589" y2="-206.881"/><linearGradient id="SVGID_6_" gradientUnits="userSpaceOnUse" x1="-144.699" x2="323.278" xlink:href="#lg1" y1="420.683" y2="-177.787"/><linearGradient id="SVGID_7_" gradientUnits="userSpaceOnUse" x1="-154.567" x2="313.41" xlink:href="#lg1" y1="412.966" y2="-185.504"/><linearGradient id="SVGID_8_" gradientUnits="userSpaceOnUse" x1="-109.328" x2="358.648" xlink:href="#lg1" y1="448.341" y2="-150.129"/><linearGradient id="SVGID_9_" gradientUnits="userSpaceOnUse" x1="-189.959" x2="278.018" xlink:href="#lg1" y1="385.291" y2="-213.179"/><linearGradient id="SVGID_10_" gradientUnits="userSpaceOnUse" x1="110.189" x2="578.165" xlink:href="#lg1" y1="619.993" y2="21.523"/><g><path d="m120 104c17.673 0 32-14.327 32-32s-14.327-32-32-32-32 14.327-32 32c.02 17.665 14.335 31.98 32 32zm0-48c8.837 0 16 7.163 16 16s-7.163 16-16 16-16-7.163-16-16c.01-8.832 7.168-15.99 16-16z" fill="url(#SVGID_1_)"/><path d="m120 32c4.418 0 8-3.582 8-8v-8c0-4.418-3.582-8-8-8s-8 3.582-8 8v8c0 4.418 3.582 8 8 8z" fill="url(#SVGID_2_)"/><path d="m112 120v8c0 4.418 3.582 8 8 8s8-3.582 8-8v-8c0-4.418-3.582-8-8-8s-8 3.582-8 8z" fill="url(#SVGID_3_)"/><path d="m159 72c0 4.418 3.582 8 8 8h8c4.418 0 8-3.582 8-8s-3.582-8-8-8h-8c-4.418 0-8 3.582-8 8z" fill="url(#SVGID_4_)"/><path d="m64 80h8c4.418 0 8-3.582 8-8s-3.582-8-8-8h-8c-4.418 0-8 3.582-8 8s3.582 8 8 8z" fill="url(#SVGID_5_)"/><path d="m153.6 46.4c2.122.003 4.158-.84 5.657-2.343l5.657-5.658c3.177-3.07 3.265-8.135.195-11.312s-8.135-3.265-11.312-.195c-.067.064-.132.13-.197.197l-5.657 5.657c-3.123 3.126-3.12 8.191.006 11.314 1.499 1.498 3.532 2.339 5.651 2.34z" fill="url(#SVGID_6_)"/><path d="m80.745 99.941-5.657 5.659c-3.185 3.062-3.285 8.126-.223 11.312 3.062 3.185 8.126 3.285 11.312.223.076-.073.15-.147.223-.223l5.657-5.657c3.17-3.078 3.244-8.143.166-11.312s-8.143-3.244-11.312-.166c-.057.053-.112.108-.166.164z" fill="url(#SVGID_7_)"/><path d="m159.255 99.941c-3.105-3.143-8.17-3.175-11.313-.07s-3.175 8.17-.07 11.313c.023.023.046.046.069.069l5.657 5.657c3.078 3.17 8.142 3.245 11.312.167s3.245-8.142.167-11.312c-.054-.056-.11-.111-.166-.166z" fill="url(#SVGID_8_)"/><path d="m80.745 44.059c3.105 3.143 8.17 3.175 11.313.07s3.175-8.17.07-11.313c-.023-.023-.046-.046-.069-.069l-5.659-5.658c-3.062-3.185-8.126-3.286-11.311-.224s-3.286 8.126-.224 11.311c.073.076.147.15.223.223z" fill="url(#SVGID_9_)"/><path d="m496 472c4.418 0 8-3.582 8-8v-24c0-4.418-3.582-8-8-8h-71.7l67.24-66.6c3.14-3.109 3.165-8.174.056-11.314-.009-.009-.017-.018-.026-.026l-22.63-22.63c-3.117-3.111-8.162-3.12-11.29-.02l-101.56 100.59h-4.09v-12.41l110.13-110.13c9.372-9.372 9.372-24.568 0-33.94l-5.59-5.6c-4.492-4.513-10.602-7.044-16.97-7.03h-.06c-6.392-.003-12.518 2.563-17 7.12l-97.04 97.99h-96.88s83.167-179.888 83.63-181.18c3.095-8.277 12.313-12.478 20.59-9.384 8.074 3.018 12.305 11.89 9.57 20.064-1.474 4.164.706 8.735 4.87 10.21l7.54 2.67c4.161 1.476 8.731-.7 10.207-4.861.001-.003.002-.006.003-.009 2.949-8.331 12.094-12.694 20.425-9.745s12.694 12.094 9.745 20.425c-1.476 4.161.7 8.731 4.861 10.207.003.001.006.002.009.003l7.54 2.67c4.159 1.477 8.728-.697 10.205-4.855.002-.005.003-.01.005-.015 22.523-62.33-9.746-131.116-72.076-153.639s-131.116 9.746-153.639 72.076c-.175.483-.346.968-.515 1.453-1.478 4.158.695 8.727 4.853 10.204.006.002.011.004.017.006l7.54 2.67c4.164 1.474 8.735-.706 10.21-4.87 2.949-8.331 12.094-12.694 20.425-9.745s12.694 12.094 9.745 20.425c-1.479 4.163.697 8.737 4.86 10.217.003.001.006.002.01.003l7.54 2.67c4.166 1.472 8.736-.711 10.209-4.877 0-.001.001-.002.001-.003 2.948-8.327 12.089-12.688 20.416-9.74 7.021 2.486 13.38 9.998 10.554 16.89-20.94 51.06-86.94 190.06-86.94 190.06h-155c-13.248.018-23.982 10.752-24 24v8c.018 13.248 10.752 23.982 24 24v8h-40c-4.418 0-8 3.582-8 8v24c0 4.418 3.582 8 8 8h8v16h-8c-4.418 0-8 3.582-8 8s3.582 8 8 8h480c4.418 0 8-3.582 8-8s-3.582-8-8-8h-8v-16zm-203.27-326.03c-10.975-3.877-23.19-1.491-31.9 6.23-2.893-17.431-19.368-29.216-36.799-26.324-2.335.387-4.619 1.033-6.811 1.924 31.133-48.289 95.516-62.197 143.805-31.064 33.085 21.33 51.297 59.508 47.055 98.644-5.62-10.185-16.327-16.515-27.96-16.53-7.831.01-15.39 2.876-21.26 8.06-2.889-17.427-19.359-29.212-36.786-26.323-2.964.491-5.843 1.398-8.554 2.693-.61.29-1.2.6-1.79.92-3.418-8.526-10.34-15.167-19-18.23zm-244.73 254.03v-8c.006-4.416 3.584-7.994 8-8h272.81c2.134.003 4.181-.851 5.68-2.37l99.39-100.37c1.498-1.515 3.539-2.368 5.67-2.37h.02c2.122-.006 4.158.841 5.65 2.35l5.6 5.59c3.12 3.128 3.12 8.192 0 11.32l-109.85 109.85h-284.97c-4.416-.006-7.994-3.584-8-8zm288 24v8h-264v-8zm-295.06 64h-.94v-16h5.44zm16.62 0 4.5-16h387.88l4.5 16zm414.44 0h-.94l-4.5-16h5.44zm-448-32v-8h335.38c2.11.001 4.134-.833 5.63-2.32l98.24-97.3 11.32 11.31-75.34 74.63c-3.137 3.111-3.158 8.177-.046 11.314 1.501 1.514 3.545 2.365 5.676 2.366h83.14v8z" fill="url(#SVGID_10_)"/></g></svg>