<?xml version="1.0"?>
<svg xmlns="http://www.w3.org/2000/svg" xmlns:xlink="http://www.w3.org/1999/xlink" width="512" height="512" viewBox="0 0 512 512"><defs><linearGradient id="a" data-name="New Gradient Swatch 1" x1="17.239" y1="502.261" x2="499.108" y2="20.392" gradientUnits="userSpaceOnUse"><stop offset="0" stop-color="#003f8a"/><stop offset="0.518" stop-color="#00d7df"/><stop offset="1" stop-color="#006df0"/></linearGradient><linearGradient id="b" x1="56.989" y1="542.011" x2="538.858" y2="60.142" xlink:href="#a"/><linearGradient id="c" x1="72.989" y1="558.011" x2="554.858" y2="76.142" xlink:href="#a"/><linearGradient id="d" x1="88.989" y1="574.011" x2="570.858" y2="92.142" xlink:href="#a"/><linearGradient id="e" x1="-144.511" y1="340.511" x2="337.358" y2="-141.358" xlink:href="#a"/></defs><g><path d="M495,312c-11.12,0-16.16-3.03-22.55-6.86-7.14-4.28-15.23-9.14-30.78-9.14s-23.64,4.86-30.78,9.14c-5.64,3.38-10.24,6.14-18.89,6.74V184H496a8,8,0,0,0,0-16H456V144a40,40,0,0,0-80,0v24H352V144a40,40,0,0,0-80,0v24H48a8,8,0,0,0,0,16H272V310.99c-5.09-1.19-8.7-3.35-12.88-5.85-7.14-4.28-15.23-9.14-30.78-9.14s-23.64,4.86-30.78,9.14c-6.39,3.83-11.43,6.86-22.55,6.86s-16.16-3.03-22.55-6.86c-7.14-4.28-15.23-9.14-30.78-9.14s-23.65,4.86-30.79,9.14C84.5,308.97,79.46,312,68.34,312s-16.17-3.03-22.55-6.86C38.64,300.86,30.55,296,15,296a8,8,0,0,0,0,16c11.12,0,16.17,3.03,22.55,6.86C44.7,323.14,52.79,328,68.34,328s23.64-4.86,30.78-9.14c6.39-3.83,11.44-6.86,22.56-6.86s16.16,3.03,22.55,6.86c7.14,4.28,15.23,9.14,30.78,9.14s23.64-4.86,30.78-9.14c6.39-3.83,11.43-6.86,22.55-6.86s16.16,3.03,22.55,6.86c6.74,4.04,14.33,8.59,28.23,9.09a8.491,8.491,0,0,0,.88.05c.16,0,.31-.01.47-.02.4,0,.79.02,1.2.02,15.55,0,23.65-4.86,30.79-9.14,6.38-3.83,11.43-6.86,22.54-6.86s16.17,3.03,22.55,6.86c7.14,4.28,15.24,9.14,30.79,9.14s23.64-4.86,30.78-9.14c6.39-3.83,11.43-6.86,22.55-6.86s16.16,3.03,22.55,6.86c7.14,4.28,15.23,9.14,30.78,9.14a8,8,0,0,0,0-16ZM392,144a24,24,0,0,1,48,0v24H392Zm-104,0a24,24,0,0,1,48,0v24H288Zm88,166.24a48.953,48.953,0,0,1-10.21-5.1C358.65,300.86,350.55,296,335,296s-23.64,4.86-30.78,9.14c-5.03,3.02-9.24,5.53-16.22,6.46V280h88ZM376,264H288V248h88Zm0-32H288V216h88Zm0-32H288V184h88Z" fill="url(#a)"/><path d="M495,344c-11.117,0-16.162-3.027-22.55-6.86-7.14-4.285-15.233-9.14-30.782-9.14s-23.642,4.855-30.782,9.141C404.5,340.973,399.453,344,388.337,344s-16.163-3.027-22.551-6.86C358.646,332.855,350.553,328,335,328s-23.642,4.855-30.781,9.141C297.835,340.973,292.79,344,281.674,344s-16.162-3.027-22.55-6.86c-7.141-4.285-15.233-9.14-30.781-9.14s-23.643,4.855-30.783,9.141c-6.388,3.832-11.433,6.859-22.55,6.859s-16.162-3.027-22.55-6.86c-7.141-4.285-15.233-9.14-30.782-9.14s-23.644,4.855-30.784,9.14C84.505,340.973,79.458,344,68.339,344s-16.165-3.027-22.553-6.86C38.645,332.855,30.551,328,15,328a8,8,0,0,0,0,16c11.119,0,16.166,3.027,22.555,6.86C44.7,355.145,52.789,360,68.339,360s23.644-4.855,30.785-9.14c6.389-3.833,11.436-6.86,22.554-6.86s16.162,3.027,22.55,6.86c7.14,4.285,15.233,9.14,30.782,9.14s23.641-4.855,30.782-9.14c6.388-3.833,11.433-6.86,22.551-6.86s16.161,3.027,22.549,6.859c7.14,4.286,15.233,9.141,30.782,9.141s23.641-4.855,30.781-9.141C318.843,347.027,323.888,344,335,344s16.162,3.027,22.55,6.859c7.14,4.286,15.233,9.141,30.783,9.141s23.641-4.855,30.781-9.14c6.388-3.833,11.433-6.86,22.55-6.86s16.162,3.027,22.55,6.86c7.14,4.285,15.233,9.14,30.782,9.14a8,8,0,0,0,0-16Z" fill="url(#b)"/><path d="M495,376c-11.117,0-16.162-3.027-22.55-6.86-7.14-4.285-15.233-9.14-30.782-9.14s-23.642,4.855-30.782,9.141C404.5,372.973,399.453,376,388.337,376s-16.163-3.027-22.551-6.86C358.646,364.855,350.553,360,335,360s-23.642,4.855-30.781,9.141C297.835,372.973,292.79,376,281.674,376s-16.162-3.027-22.55-6.86c-7.141-4.285-15.233-9.14-30.781-9.14s-23.643,4.855-30.783,9.141c-6.388,3.832-11.433,6.859-22.55,6.859s-16.162-3.027-22.55-6.86c-7.141-4.285-15.233-9.14-30.782-9.14s-23.644,4.855-30.784,9.14C84.505,372.973,79.458,376,68.339,376s-16.165-3.027-22.553-6.86C38.645,364.855,30.551,360,15,360a8,8,0,0,0,0,16c11.119,0,16.166,3.027,22.555,6.86C44.7,387.145,52.789,392,68.339,392s23.644-4.855,30.785-9.14c6.389-3.833,11.436-6.86,22.554-6.86s16.162,3.027,22.55,6.86c7.14,4.285,15.233,9.14,30.782,9.14s23.641-4.855,30.782-9.14c6.388-3.833,11.433-6.86,22.551-6.86s16.161,3.027,22.549,6.859c7.14,4.286,15.233,9.141,30.782,9.141s23.641-4.855,30.781-9.141C318.843,379.027,323.888,376,335,376s16.162,3.027,22.55,6.859c7.14,4.286,15.233,9.141,30.783,9.141s23.641-4.855,30.781-9.14c6.388-3.833,11.433-6.86,22.55-6.86s16.162,3.027,22.55,6.86c7.14,4.285,15.233,9.14,30.782,9.14a8,8,0,0,0,0-16Z" fill="url(#c)"/><path d="M495,408c-11.117,0-16.162-3.027-22.55-6.86-7.14-4.285-15.233-9.14-30.782-9.14s-23.642,4.855-30.782,9.141C404.5,404.973,399.453,408,388.337,408s-16.163-3.027-22.551-6.86C358.646,396.855,350.553,392,335,392s-23.642,4.855-30.781,9.141C297.835,404.973,292.79,408,281.674,408s-16.162-3.027-22.55-6.86c-7.141-4.285-15.233-9.14-30.781-9.14s-23.643,4.855-30.783,9.141c-6.388,3.832-11.433,6.859-22.55,6.859s-16.162-3.027-22.55-6.86c-7.141-4.285-15.233-9.14-30.782-9.14s-23.644,4.855-30.784,9.14C84.505,404.973,79.458,408,68.339,408s-16.165-3.027-22.553-6.86C38.645,396.855,30.551,392,15,392a8,8,0,0,0,0,16c11.119,0,16.166,3.027,22.555,6.86C44.7,419.145,52.789,424,68.339,424s23.644-4.855,30.785-9.14c6.389-3.833,11.436-6.86,22.554-6.86s16.162,3.027,22.55,6.86c7.14,4.285,15.233,9.14,30.782,9.14s23.641-4.855,30.782-9.14c6.388-3.833,11.433-6.86,22.551-6.86s16.161,3.027,22.549,6.859c7.14,4.286,15.233,9.141,30.782,9.141s23.641-4.855,30.781-9.141C318.843,411.027,323.888,408,335,408s16.162,3.027,22.55,6.859c7.14,4.286,15.233,9.141,30.783,9.141s23.641-4.855,30.781-9.14c6.388-3.833,11.433-6.86,22.55-6.86s16.162,3.027,22.55,6.86c7.14,4.285,15.233,9.14,30.782,9.14a8,8,0,0,0,0-16Z" fill="url(#d)"/><path d="M16,184h8a8,8,0,0,0,0-16H16a8,8,0,0,0,0,16Z" fill="url(#e)"/></g></svg>
