<?xml version="1.0"?>
<svg xmlns="http://www.w3.org/2000/svg" xmlns:xlink="http://www.w3.org/1999/xlink" width="512" height="512" viewBox="0 0 512 512"><defs><linearGradient id="a" data-name="New Gradient Swatch 1" x1="47.932" y1="528.068" x2="571.071" y2="4.929" gradientUnits="userSpaceOnUse"><stop offset="0" stop-color="#003f8a"/><stop offset="0.518" stop-color="#00d7df"/><stop offset="1" stop-color="#006df0"/></linearGradient><linearGradient id="b" x1="-12.068" y1="468.068" x2="511.071" y2="-55.071" xlink:href="#a"/><linearGradient id="c" x1="99.932" y1="580.068" x2="623.071" y2="56.929" xlink:href="#a"/><linearGradient id="d" x1="64.623" y1="544.76" x2="587.763" y2="21.62" xlink:href="#a"/><linearGradient id="e" x1="-40.068" y1="440.068" x2="483.071" y2="-83.071" xlink:href="#a"/></defs><g><path d="M239.589,357.47A8,8,0,0,0,232,352H136a8,8,0,0,0-7.589,5.47l-16,48A8,8,0,0,0,120,416H248a8,8,0,0,0,7.589-10.53ZM131.1,400l10.666-32h84.468L236.9,400Z" fill="url(#a)"/><path d="M72,352a32,32,0,1,0,32,32A32.036,32.036,0,0,0,72,352Zm0,48a16,16,0,1,1,16-16A16.019,16.019,0,0,1,72,400Z" fill="url(#b)"/><path d="M296,352a32,32,0,1,0,32,32A32.036,32.036,0,0,0,296,352Zm0,48a16,16,0,1,1,16-16A16.019,16.019,0,0,1,296,400Z" fill="url(#c)"/><path d="M472,200H352a16.021,16.021,0,0,1-16-16V163.23c11.75-12.3,56-60.66,56-91.23a64,64,0,0,0-128,0c0,30.57,44.25,78.93,56,91.23V184a32.036,32.036,0,0,0,32,32H472a16.021,16.021,0,0,1,16,16v88a8.011,8.011,0,0,1-8,8H392a24,24,0,0,0,0,48h56a8.011,8.011,0,0,1,8,8v40a16.021,16.021,0,0,1-16,16H360v-8a8,8,0,0,0-8-8V360a32.036,32.036,0,0,0-32-32H302.68l-10.45-57.43v-.01l-.78-4.28A31.969,31.969,0,0,0,259.97,240H232V216a8,8,0,0,0-8-8H144a8,8,0,0,0-8,8v24H108.03a31.969,31.969,0,0,0-31.48,26.28l-.78,4.28v.01L65.32,328H48a32.036,32.036,0,0,0-32,32v64a8,8,0,0,0-8,8v24a8,8,0,0,0,8,8h8v16a24.032,24.032,0,0,0,24,24H64a24.032,24.032,0,0,0,24-24V464H280v16a24.032,24.032,0,0,0,24,24h16a24.032,24.032,0,0,0,24-24V464h8a8,8,0,0,0,8-8h80a32.036,32.036,0,0,0,32-32V384a24.032,24.032,0,0,0-24-24H392a8,8,0,0,1,0-16h88a24.032,24.032,0,0,0,24-24V232A32.036,32.036,0,0,0,472,200ZM328,148.33c-5.27-5.74-13.49-15.03-21.67-25.62C289.35,100.71,280,82.71,280,72a48,48,0,0,1,96,0c0,10.68-9.32,28.65-26.24,50.59C341.57,133.21,333.29,142.56,328,148.33ZM152,224h64v16H152Zm-43.97,32H259.97a15.979,15.979,0,0,1,13.86,8H94.17A15.979,15.979,0,0,1,108.03,256ZM90.32,280H277.68l8.73,48H81.59ZM32,360a16.021,16.021,0,0,1,16-16H320a16.021,16.021,0,0,1,16,16v64H32ZM72,480a8.011,8.011,0,0,1-8,8H48a8.011,8.011,0,0,1-8-8V464H72Zm256,0a8.011,8.011,0,0,1-8,8H304a8.011,8.011,0,0,1-8-8V464h32Zm16-32H24v-8H344Z" fill="url(#d)"/><path d="M352,72a24,24,0,1,0-24,24A24.027,24.027,0,0,0,352,72Zm-32,0a8,8,0,1,1,8,8A8.009,8.009,0,0,1,320,72Z" fill="url(#e)"/></g></svg>
